<svg width="60" height="60" viewBox="0 0 60 60" fill="none" xmlns="http://www.w3.org/2000/svg">
<path opacity="0.21" d="M37 0C49.7025 0 60 10.2975 60 23V37C60 49.7025 49.7025 60 37 60H23C10.2975 60 0 49.7025 0 37V23C0 10.2975 10.2975 0 23 0H37Z" fill="#8280FF"/>
<path opacity="0.587821" d="M30 17.9999C32.9454 17.9999 35.3338 20.3875 35.334 23.3329C35.334 26.2784 32.9455 28.6669 30 28.6669C27.0546 28.6667 24.667 26.2783 24.667 23.3329C24.6672 20.3876 27.0547 18.0001 30 17.9999Z" fill="#8280FF"/>
<path d="M29.9777 31.3333C36.3614 31.3333 41.6063 34.3907 41.9972 40.9329C42.0128 41.1935 41.9969 42.0002 40.9953 42.0002H18.9699C18.6354 41.9998 17.973 41.2784 18.0011 40.9319C18.5181 34.5686 23.6827 31.3333 29.9777 31.3333Z" fill="#8280FF"/>
</svg>
